#!OML:ASF E:\motion texture\Top Level 1\Subject 1\Session 1\male.ASF
:FULLY-SPECIFIED
:DEGREES
883
root -49.8421 17.7073 2.69864 108.264 -88.7793 -103.75
lowerback -1.45958 1.79166 2.89209
upperback -1.37412 2.33267 2.04002
thorax -0.560065 1.137 0.493863
lowerneck -12.388 -6.41955 -11.1974
upperneck -5.57922 -7.26887 9.41981
head 1.07084 -3.41822 4.29556
rclavicle 1.24489e-014 5.56597e-015
rhumerus -67.3434 -53.9169 -24.9237
rradius 11.5985
rwrist 17.0588
rhand -11.3666 -49.4973
rfingers 7.12502
rthumb 14.6673 -78.9585
lclavicle 1.24489e-014 5.56597e-015
lhumerus -48.8938 31.757 57.1755
lradius 15.263
lwrist -42.5125
lhand -11.3202 25.593
lfingers 7.12502
lthumb 14.712 55.0509
rfemur -18.6221 -5.64875 21.5181
rtibia 67.9245
rfoot 5.97806 -15.653
rtoes 9.63751
lfemur -22.5544 -4.98696 -19.5747
ltibia 27.9852
lfoot -6.25452 2.57319
ltoes -0.927122
884
root -49.9552 17.7214 2.69523 118.018 -88.8326 -113.653
lowerback -1.55112 1.73826 2.69454
upperback -1.38589 2.25988 2.06291
thorax -0.530154 1.10257 0.629276
lowerneck -12.2695 -6.37258 -11.1094
upperneck -5.48834 -7.22871 9.15152
head 1.05942 -3.40425 4.20361
rclavicle -1.25421e-014 -1.59028e-014
rhumerus -57.7181 -52.3403 -36.9267
rradius 12.345
rwrist 11.0261
rhand -11.0362 -50.0241
rfingers 7.12502
rthumb 14.9856 -79.4619
lclavicle -1.25421e-014 -1.59028e-014
lhumerus -46.6343 30.701 60.1236
lradius 15.6494
lwrist -41.3783
lhand -11.6624 25.4643
lfingers 7.12502
lthumb 14.3824 54.946
rfemur -19.5746 -5.40582 21.4479
rtibia 68.1526
rfoot 5.01534 -15.4768
rtoes 9.12772
lfemur -21.8006 -4.87364 -19.7402
ltibia 27.7484
lfoot -6.64185 2.58248
ltoes -1.15146
885
root -50.0738 17.735 2.69818 129.297 -89.0343 -125.156
lowerback -1.39304 1.64304 2.37037
upperback -1.57308 2.14817 2.06266
thorax -0.823296 1.04639 0.800169
lowerneck -11.9134 -6.29111 -11.1718
upperneck -5.32736 -7.14442 9.00537
head 1.04016 -3.36639 4.18027
rclavicle 1.07848e-014 -1.11319e-014
rhumerus -49.412 -49.4133 -47.3711
rradius 13.1479
rwrist 5.16556
rhand -10.6345 -50.4399
rfingers 7.12502
rthumb 15.3726 -79.8484
lclavicle 1.07848e-014 -1.11319e-014
lhumerus -44.7313 29.5521 62.6983
lradius 15.8677
lwrist -40.4643
lhand -12.3224 24.8916
lfingers 7.12502
lthumb 13.7463 54.4175
rfemur -20.302 -5.35614 21.0883
rtibia 68.1284
rfoot 3.73572 -15.1691
rtoes 9.36584
lfemur -20.8414 -4.927 -20.1974
ltibia 27.3792
lfoot -7.05603 2.4955
ltoes -1.20125
886
root -50.1748 17.7489 2.6923 137.17 -88.9403 -133.055
lowerback -1.81835 1.65919 2.29514
upperback -1.55083 2.15224 2.05508
thorax -0.564699 1.05072 0.848067
lowerneck -11.1555 -6.24384 -11.1782
upperneck -5.79205 -7.14408 9.02121
head 0.787682 -3.38026 4.21418
rclavicle 9.26989e-015 -5.56597e-015
rhumerus -42.1667 -46.2733 -56.4326
rradius 14.1687
rwrist -0.331603
rhand -10.3233 -50.9529
rfingers 7.12502
rthumb 15.6723 -80.3382
lclavicle 9.26989e-015 -5.56597e-015
lhumerus -42.301 28.0267 65.6384
lradius 16.3326
lwrist -39.4246
lhand -12.7347 24.6356
lfingers 7.12502
lthumb 13.349 54.188
rfemur -21.4067 -5.06598 21.1489
rtibia 68.1407
rfoot 2.75784 -14.97
rtoes 8.61673
lfemur -20.8414 -4.927 -20.1974
ltibia 27.3792
lfoot -7.05603 2.4955
ltoes -1.20125
887
root -50.2932 17.7631 2.69316 154.14 -88.8775 -150.344
lowerback -1.6757 1.55065 2.17691
upperback -1.56377 2.01602 2.01918
thorax -0.660768 0.983408 0.87094
lowerneck -11.2359 -6.11786 -11.253
upperneck -5.44076 -6.96453 8.98201
head 0.887718 -3.28622 4.21652
rclavicle -7.40473e-015 -1.35174e-014
rhumerus -36.6836 -42.7141 -63.4235
rradius 15.165
rwrist -5.63412
rhand -9.60558 -48.44
rfingers 7.12502
rthumb 16.3634 -77.7697
lclavicle -7.40473e-015 -1.35174e-014
lhumerus -40.3238 26.8075 67.9375
lradius 16.6293
lwrist -38.5141
lhand -13.1565 24.8582
lfingers 7.12502
lthumb 12.9424 54.4368
rfemur -21.6021 -4.82851 20.7681
rtibia 66.9065
rfoot 1.99863 -14.7591
rtoes 8.71371
lfemur -20.8414 -4.927 -20.1974
ltibia 27.3792
lfoot -7.05603 2.4955
ltoes -1.20125
888
root -50.4021 17.7785 2.69283 169.302 -88.7806 -165.665
lowerback -1.88114 1.50496 1.93079
upperback -1.48766 1.95008 2.00012
thorax -0.475148 0.954452 0.995102
lowerneck -11.2406 -6.06969 -11.2305
upperneck -5.32733 -6.90415 8.81867
head 0.907678 -3.25765 4.16466
rclavicle 1.01877e-015 -2.54444e-014
rhumerus -36.6836 -42.7141 -63.4235
rradius 15.165
rwrist -5.63412
rhand -9.60558 -48.44
rfingers 7.12502
rthumb 16.3634 -77.7697
lclavicle 1.01877e-015 -2.54444e-014
lhumerus -38.107 25.3881 70.4216
lradius 17.0451
lwrist -37.639
lhand -13.5588 24.756
lfingers 7.12502
lthumb 12.5545 54.3588
rfemur -21.6021 -4.82851 20.7681
rtibia 66.9065
rfoot 1.99863 -14.7591
rtoes 8.71371
lfemur -20.8414 -4.927 -20.1974
ltibia 27.3792
lfoot -7.05603 2.4955
ltoes -1.20125
